<svg display="none"
   xmlns="http://www.w3.org/2000/svg">

   <symbol id="icon-arrow" viewBox="0 0 7 10">
      <g>
         <path d="M6.41879 5.52841L2.46913 9.77974C2.19614 10.0736 1.75471 10.0736 1.48462 9.77974L0.828279 9.07327C0.555287 8.77943 0.555287 8.30428 0.828279 8.01356L3.62789 5.00012L0.828279 1.98668C0.555287 1.69284 0.555287 1.21769 0.828279 0.926974L1.48462 0.220505C1.75761 -0.073337 2.19904 -0.073337 2.46913 0.220505L6.41879 4.47183C6.69178 4.75942 6.69178 5.23457 6.41879 5.52841V5.52841Z"/>
      </g>
   </symbol>
   <symbol id="icon-odnoklassniki" viewBox="0 0 32 32">
      <g>
         <path d="M120.001,753.38c10.372,0,18.807-8.435,18.807-18.807c0-10.362-8.435-18.799-18.807-18.799 c-10.362,0-18.807,8.437-18.807,18.799C101.194,744.945,109.639,753.38,120.001,753.38z M120.001,689.164 c25.055,0,45.422,20.367,45.422,45.409c0,25.052-20.367,45.427-45.422,45.427c-25.049,0-45.422-20.375-45.422-45.427 C74.579,709.532,94.952,689.164,120.001,689.164z M138.378,652.109c9.247,2.107,18.165,5.765,26.377,10.925 c6.215,3.917,8.089,12.134,4.172,18.35c-3.912,6.23-12.124,8.103-18.35,4.186c-18.605-11.703-42.561-11.698-61.156,0 c-6.227,3.917-14.438,2.043-18.346-4.186c-3.917-6.221-2.049-14.433,4.168-18.35c8.211-5.154,17.129-8.818,26.376-10.925 l-25.395-25.394c-5.192-5.197-5.192-13.621,0.005-18.817c2.601-2.596,6.004-3.897,9.406-3.897c3.408,0,6.816,1.3,9.417,3.897 l24.943,24.954l24.965-24.954c5.192-5.197,13.616-5.197,18.812,0c5.202,5.196,5.202,13.626,0,18.817 C163.773,626.715,138.378,652.109,138.378,652.109z" transform="matrix(.125 0 0 -.125 0 102.5)"/>
      </g>
   </symbol>
   <symbol id="icon-youtube" viewBox="0 0 49 49">
      <g>
         <path d="M39.256,6.5H9.744C4.371,6.5,0,10.885,0,16.274v16.451c0,5.39,4.371,9.774,9.744,9.774h29.512
			c5.373,0,9.744-4.385,9.744-9.774V16.274C49,10.885,44.629,6.5,39.256,6.5z M47,32.726c0,4.287-3.474,7.774-7.744,7.774H9.744
			C5.474,40.5,2,37.012,2,32.726V16.274C2,11.988,5.474,8.5,9.744,8.5h29.512c4.27,0,7.744,3.488,7.744,7.774V32.726z"/>
         <path d="M33.36,24.138l-13.855-8.115c-0.308-0.18-0.691-0.183-1.002-0.005S18,16.527,18,16.886v16.229
			c0,0.358,0.192,0.69,0.502,0.868c0.154,0.088,0.326,0.132,0.498,0.132c0.175,0,0.349-0.046,0.505-0.137l13.855-8.113
			c0.306-0.179,0.495-0.508,0.495-0.863S33.667,24.317,33.36,24.138z M20,31.37V18.63l10.876,6.371L20,31.37z"/>
      </g>
   </symbol>
   <symbol id="icon-vk" viewBox="0 0 24 24">
      <g>
         <path d="M13.162 18.994c.609 0 .858-.406.851-.915-.031-1.917.714-2.949 2.059-1.604 1.488 1.488 1.796 2.519 3.603 2.519h3.2c.808 0 1.126-.26 1.126-.668 0-.863-1.421-2.386-2.625-3.504-1.686-1.565-1.765-1.602-.313-3.486 1.801-2.339 4.157-5.336 2.073-5.336h-3.981c-.772 0-.828.435-1.103 1.083-.995 2.347-2.886 5.387-3.604 4.922-.751-.485-.407-2.406-.35-5.261.015-.754.011-1.271-1.141-1.539-.629-.145-1.241-.205-1.809-.205-2.273 0-3.841.953-2.95 1.119 1.571.293 1.42 3.692 1.054 5.16-.638 2.556-3.036-2.024-4.035-4.305-.241-.548-.315-.974-1.175-.974h-3.255c-.492 0-.787.16-.787.516 0 .602 2.96 6.72 5.786 9.77 2.756 2.975 5.48 2.708 7.376 2.708z"/>
      </g>
   </symbol>
   <symbol id="icon-telegram" viewBox="0 0 24 24">
      <g>
         <path id="telegram-1" d="M18.384,22.779c0.322,0.228 0.737,0.285 1.107,0.145c0.37,-0.141 0.642,-0.457 0.724,-0.84c0.869,-4.084 2.977,-14.421 3.768,-18.136c0.06,-0.28 -0.04,-0.571 -0.26,-0.758c-0.22,-0.187 -0.525,-0.241 -0.797,-0.14c-4.193,1.552 -17.106,6.397 -22.384,8.35c-0.335,0.124 -0.553,0.446 -0.542,0.799c0.012,0.354 0.25,0.661 0.593,0.764c2.367,0.708 5.474,1.693 5.474,1.693c0,0 1.452,4.385 2.209,6.615c0.095,0.28 0.314,0.5 0.603,0.576c0.288,0.075 0.596,-0.004 0.811,-0.207c1.216,-1.148 3.096,-2.923 3.096,-2.923c0,0 3.572,2.619 5.598,4.062Zm-11.01,-8.677l1.679,5.538l0.373,-3.507c0,0 6.487,-5.851 10.185,-9.186c0.108,-0.098 0.123,-0.262 0.033,-0.377c-0.089,-0.115 -0.253,-0.142 -0.376,-0.064c-4.286,2.737 -11.894,7.596 -11.894,7.596Z"/>
      </g>
   </symbol>
   <symbol id="icon-instagram" viewBox="0 0 512 512">
      <g>
         <path d="M505,257c0,34.8-0.7,69.7,0.2,104.5c1.5,61.6-37.2,109.2-86.5,130.4c-19.8,8.5-40.6,13-62.1,13c-67.3,0.1-134.7,1-202-0.3   c-50.7-1-92.4-22.2-122.3-64c-15.7-22-23.2-47-23.2-74.1c0-71.7,0-143.3,0-215c0-58.5,28.5-99.4,79.1-126C110.2,14,134.1,9.1,159,9   c65.3,0,130.7-0.4,196,0.2c50.7,0.4,93,19.8,124.2,60.6c17.4,22.8,25.8,49,25.8,77.8C505,184,505,220.5,505,257z M46,257   c0,36.7,0,73.3,0,110c0,16.4,3.8,31.8,12.3,45.7c22.3,36.5,56,54.3,97.8,55c67.1,1,134.3,0.4,201.5,0.2c16.5,0,32.5-3.4,47.4-10.5   c40.6-19.4,63.3-50.3,63.1-96.7c-0.4-71-0.1-142-0.1-213c0-20.1-5.7-38.5-17.6-54.7c-23-31.1-54.8-46.4-92.8-46.8   c-67-0.8-134-0.3-201-0.2c-14.3,0-28.1,2.9-41.5,7.9c-36.8,13.7-71,48.4-69.4,99.5C46.9,188,46,222.5,46,257z"/>
         <path d="M257.6,363c-64.5,0-116.5-51.4-116.6-115.4c-0.1-63,52.3-114.6,116.4-114.6c64.3-0.1,116.5,51.4,116.6,114.9   C374,311.3,321.9,362.9,257.6,363z M257.6,326c43.9,0,79.5-35.1,79.4-78.3c-0.1-42.8-35.7-77.8-79.4-77.8   c-43.9,0-79.7,34.9-79.7,78C178,291.1,213.7,326.1,257.6,326z"/>
         <path d="M387.5,98c13.5,0,24.5,11.5,24.5,25.6c-0.1,14.1-11.2,25.5-24.7,25.4c-13.3-0.1-24.2-11.5-24.2-25.3   C363,109.6,374,98,387.5,98z"/>
      </g>
   </symbol>
   <symbol id="icon-facebook" viewBox="0 0 400 400">
      <g transform="matrix(8.91 0 0 8.91 200 200)" id="Layer_1">
         <path style="stroke: none; stroke-width: 1; stroke-dasharray: none; stroke-linecap: butt; stroke-dashoffset: 0; stroke-linejoin: miter; stroke-miterlimit: 4;   opacity: 1;" transform=" translate(-29.21, -30.25)" d="M 40.43 21.739 h -7.645 v -5.014 c 0 -1.883 1.248 -2.322 2.127 -2.322 c 0.877 0 5.395 0 5.395 0 V 6.125 l -7.43 -0.029 c -8.248 0 -10.125 6.174 -10.125 10.125 v 5.518 h -4.77 v 8.53 h 4.77 c 0 10.947 0 24.137 0 24.137 h 10.033 c 0 0 0 -13.32 0 -24.137 h 6.77 L 40.43 21.739 z" stroke-linecap="round" />
      </g>
   </symbol>
   <symbol id="icon-cart" viewBox="0 0 26 26">
      <g>
         <path d="M26 10.7879V11.6646C26 12.3909 25.5235 12.9797 24.9358 12.9797H24.5811L23.4233 22.9958C23.2735 24.2916 22.3755 25.2541 21.3164 25.2541H5.14412C4.08499 25.2541 3.18703 24.2916 3.03721 22.9958L1.87943 12.9797H1.52471C0.936996 12.9797 0.460571 12.3909 0.460571 11.6646V10.7879C0.460571 10.0615 0.936996 9.47275 1.52471 9.47275H4.51056L9.2451 1.42752C9.70601 0.644367 10.5933 0.471156 11.2271 1.04076C11.8608 1.61037 12.001 2.70701 11.5401 3.49021L8.01939 9.47275H18.4411L14.9205 3.49015C14.4596 2.70701 14.5997 1.61032 15.2335 1.04071C15.8671 0.471102 16.7546 0.644258 17.2155 1.42746L21.95 9.47275H24.9358C25.5235 9.47275 26 10.0615 26 10.7879ZM14.2944 20.432V14.2948C14.2944 13.5685 13.818 12.9797 13.2303 12.9797C12.6425 12.9797 12.1661 13.5685 12.1661 14.2948V20.432C12.1661 21.1583 12.6425 21.7471 13.2303 21.7471C13.818 21.7471 14.2944 21.1583 14.2944 20.432ZM19.2604 20.432V14.2948C19.2604 13.5685 18.784 12.9797 18.1963 12.9797C17.6085 12.9797 17.1321 13.5685 17.1321 14.2948V20.432C17.1321 21.1583 17.6085 21.7471 18.1963 21.7471C18.784 21.7471 19.2604 21.1583 19.2604 20.432ZM9.32841 20.432V14.2948C9.32841 13.5685 8.85199 12.9797 8.26427 12.9797C7.67656 12.9797 7.20013 13.5685 7.20013 14.2948V20.432C7.20013 21.1583 7.67656 21.7471 8.26427 21.7471C8.85199 21.7471 9.32841 21.1583 9.32841 20.432Z"/>
      </g>
   </symbol>
   <symbol id="icon-datapicker" viewBox="0 0 16 17">
      <g>
         <path d="M0.507812 14.6849C0.507812 15.513 1.21168 16.1849 2.07924 16.1849H13.6031C14.4706 16.1849 15.1745 15.513 15.1745 14.6849V6.18491H0.507812V14.6849ZM10.984 8.55991C10.984 8.35366 11.1608 8.18491 11.3769 8.18491H12.6864C12.9025 8.18491 13.0792 8.35366 13.0792 8.55991V9.80991C13.0792 10.0162 12.9025 10.1849 12.6864 10.1849H11.3769C11.1608 10.1849 10.984 10.0162 10.984 9.80991V8.55991ZM10.984 12.5599C10.984 12.3537 11.1608 12.1849 11.3769 12.1849H12.6864C12.9025 12.1849 13.0792 12.3537 13.0792 12.5599V13.8099C13.0792 14.0162 12.9025 14.1849 12.6864 14.1849H11.3769C11.1608 14.1849 10.984 14.0162 10.984 13.8099V12.5599ZM6.79353 8.55991C6.79353 8.35366 6.97031 8.18491 7.18638 8.18491H8.49591C8.71198 8.18491 8.88877 8.35366 8.88877 8.55991V9.80991C8.88877 10.0162 8.71198 10.1849 8.49591 10.1849H7.18638C6.97031 10.1849 6.79353 10.0162 6.79353 9.80991V8.55991ZM6.79353 12.5599C6.79353 12.3537 6.97031 12.1849 7.18638 12.1849H8.49591C8.71198 12.1849 8.88877 12.3537 8.88877 12.5599V13.8099C8.88877 14.0162 8.71198 14.1849 8.49591 14.1849H7.18638C6.97031 14.1849 6.79353 14.0162 6.79353 13.8099V12.5599ZM2.60305 8.55991C2.60305 8.35366 2.77984 8.18491 2.99591 8.18491H4.30543C4.5215 8.18491 4.69829 8.35366 4.69829 8.55991V9.80991C4.69829 10.0162 4.5215 10.1849 4.30543 10.1849H2.99591C2.77984 10.1849 2.60305 10.0162 2.60305 9.80991V8.55991ZM2.60305 12.5599C2.60305 12.3537 2.77984 12.1849 2.99591 12.1849H4.30543C4.5215 12.1849 4.69829 12.3537 4.69829 12.5599V13.8099C4.69829 14.0162 4.5215 14.1849 4.30543 14.1849H2.99591C2.77984 14.1849 2.60305 14.0162 2.60305 13.8099V12.5599ZM13.6031 2.18491H12.0316V0.684906C12.0316 0.409906 11.7959 0.184906 11.5078 0.184906H10.4602C10.1721 0.184906 9.93638 0.409906 9.93638 0.684906V2.18491H5.74591V0.684906C5.74591 0.409906 5.51019 0.184906 5.2221 0.184906H4.17448C3.88638 0.184906 3.65067 0.409906 3.65067 0.684906V2.18491H2.07924C1.21168 2.18491 0.507812 2.85678 0.507812 3.68491V5.18491H15.1745V3.68491C15.1745 2.85678 14.4706 2.18491 13.6031 2.18491Z"/>
      </g>
   </symbol>
   <symbol id="icon-search" viewBox="0 0 16 17">
      <g>
         <path d="M17.4573 15.198L14.1779 11.8878C14.0298 11.7384 13.8292 11.6554 13.6187 11.6554H13.0825C13.9904 10.4833 14.5298 9.00913 14.5298 7.40546C14.5298 3.59052 11.4675 0.49939 7.68801 0.49939C3.90856 0.49939 0.846191 3.59052 0.846191 7.40546C0.846191 11.2204 3.90856 14.3115 7.68801 14.3115C9.27676 14.3115 10.7372 13.767 11.8984 12.8506V13.3918C11.8984 13.6043 11.9806 13.8069 12.1286 13.9563L15.4081 17.2665C15.7173 17.5786 16.2173 17.5786 16.5232 17.2665L17.454 16.3269C17.7632 16.0148 17.7632 15.5101 17.4573 15.198ZM7.68801 11.6554C5.36245 11.6554 3.47766 9.75618 3.47766 7.40546C3.47766 5.05806 5.35916 3.15557 7.68801 3.15557C10.0136 3.15557 11.8984 5.05474 11.8984 7.40546C11.8984 9.75286 10.0169 11.6554 7.68801 11.6554Z"/>
      </g>
   </symbol>
   <symbol id="icon-tv-two" viewBox="0 0 128 128">
      <g>
         <path d="M122,19.3H5.7c-1,0-1.9,0.8-1.9,1.9v77c0,1,0.8,1.9,1.9,1.9h29.2v4.5h-8.3c-1,0-1.9,0.8-1.9,1.9
		c0,1,0.8,1.9,1.9,1.9h75.1c1,0,1.9-0.8,1.9-1.9c0-1-0.8-1.9-1.9-1.9h-8.8v-4.5H122c1,0,1.9-0.8,1.9-1.9v-77
		C123.8,20.1,123,19.3,122,19.3z M89.1,104.6H38.6v-4.5h50.5V104.6z M120.1,96.4H7.5V23h112.6V96.4z"/>
         <path d="M51.6,73.2L51.6,73.2L51.6,73.2c0.5,0,1-0.2,1.3-0.6l24-24.1c0.5-0.7,0.5-1.6,0-2.2c-0.3-0.5-0.9-0.7-1.5-0.7
		c-0.4,0-0.8,0.1-1.2,0.4l-24,24c-0.3,0.3-0.5,0.8-0.5,1.3C49.7,72.3,50.6,73.2,51.6,73.2z"/>
         <path d="M75.7,57.5c-0.5,0-1,0.2-1.3,0.5L62.3,70.1c-0.3,0.3-0.5,0.8-0.5,1.3c0,0.9,0.7,1.7,1.5,1.8v0h0.6v0
		c0.4-0.1,0.7-0.2,1-0.5L77,60.7c0.4-0.4,0.5-0.8,0.5-1.3c0-0.5-0.2-1-0.5-1.3C76.7,57.7,76.2,57.5,75.7,57.5z"/>
      </g>
   </symbol>

   <symbol id="icon-tv-wifi" viewBox="0 0 4500 4500">
      <g id="Слой_x0020_1">
         <metadata id="CorelCorpID_0Corel-Layer"/>
         <rect x="-2.13" y="2.12"/>
         <g id="_2624364928496">
            <g>
               <path d="M4426.68 582.9l-4357.62 0c-37.47,0 -71.19,29.98 -71.19,71.19l0 2885.1c0,37.47 29.97,71.19 71.19,71.19l1094.09 0 0 168.61 -310.99 0c-37.47,0 -71.19,29.97 -71.19,71.19 0,37.47 29.97,71.19 71.19,71.19l2813.9 0c37.47,0 71.19,-29.98 71.19,-71.19 0,-37.47 -29.97,-71.19 -71.19,-71.19l-329.72 0 0 -168.61 1090.34 0c37.47,0 71.19,-29.98 71.19,-71.19l0 -2885.1c-3.75,-41.21 -33.72,-71.19 -71.19,-71.19zm-1232.72 3196.09l-1892.18 0 0 -168.61 1892.18 0 0 168.61zm1161.53 -307.25l-4218.99 0 0 -2750.2 4218.99 0 0 2750.2z"/>
            </g>
            <g>
               <g>
                  <path d="M3301.95 1689.91c-265.5,-306.49 -648.13,-482.18 -1054.18,-486.09 -404.1,3.91 -788.67,179.6 -1054.17,486.09 -29.28,31.24 -25.38,80.04 5.86,109.33 31.23,29.28 80.04,25.37 109.32,-5.86 236.21,-273.3 577.84,-431.43 938.99,-435.33 361.16,3.9 704.74,162.03 940.95,435.33 29.28,31.23 76.13,33.19 109.32,5.86 29.28,-29.29 33.19,-78.09 3.91,-109.33l0 0 0 0z"/>
                  <path d="M2247.77 1664.54c-285.01,0 -554.41,121.03 -745.72,331.86 -29.29,31.24 -27.34,80.04 3.9,109.33 31.23,29.28 80.04,27.33 109.32,-3.91l0 0c314.3,-349.44 855.05,-378.72 1204.49,-62.47 21.47,19.52 42.95,41 62.47,62.47 29.28,31.24 78.09,33.19 109.32,3.91 31.24,-29.29 33.19,-78.09 3.91,-109.33l0 0c-191.32,-210.83 -462.67,-331.86 -747.69,-331.86z"/>
                  <path d="M2247.77 2125.25c-162.03,0 -318.2,62.47 -437.28,175.69 -33.19,27.33 -37.09,76.14 -9.76,107.37 27.33,33.19 76.13,37.09 107.37,9.76 1.95,-1.95 5.85,-5.85 7.81,-7.81 185.45,-175.69 476.33,-175.69 661.78,0 33.19,27.33 80.04,21.48 107.37,-9.76 23.43,-29.28 23.43,-72.23 -1.95,-99.56 -115.18,-115.17 -273.31,-177.64 -435.34,-175.69z"/>
                  <path d="M2138.45 2630.86c-58.56,60.52 -56.61,158.13 3.91,216.69 60.51,58.57 158.12,56.61 216.69,-3.9 27.33,-29.29 42.95,-66.38 42.95,-105.42 0,-41 -15.62,-81.99 -46.86,-111.28 -60.51,-58.56 -158.12,-58.56 -216.69,3.91 0,-1.95 0,0 0,0z"/>
               </g>
            </g>
         </g>
      </g>
   </symbol>

   <symbol id="icon-tv" viewBox="0 0 4500 4500">
      <g id="Слой_x0020_1">
         <metadata id="CorelCorpID_0Corel-Layer"/>
         <rect x="-2.13" y="2.12"/>
         <g id="_2660688494640">
            <g>
               <path d="M4426.68 582.9l-4357.62 0c-37.47,0 -71.19,29.98 -71.19,71.19l0 2885.09c0,37.47 29.98,71.19 71.19,71.19l1094.09 0 0 168.61 -310.99 0c-37.47,0 -71.19,29.97 -71.19,71.19 0,37.47 29.97,71.19 71.19,71.19l2813.9 0c37.47,0 71.19,-29.97 71.19,-71.19 0,-37.47 -29.97,-71.19 -71.19,-71.19l-329.72 0 0 -168.61 1090.34 0c37.47,0 71.19,-29.97 71.19,-71.19l0 -2885.09c-3.75,-41.21 -33.72,-71.19 -71.19,-71.19zm-1232.72 3196.08l-1892.18 0 0 -168.61 1892.18 0 0 168.61zm1161.53 -307.24l-4218.99 0 0 -2750.21 4218.99 0 0 2750.21z"/>
            </g>
            <g>
               <path d="M2244.16 3841.95l43.51 0c2.42,0 4.59,-1.93 4.59,-4.59 0,-2.42 -1.93,-4.59 -4.59,-4.59l-43.51 0 0 9.18z"/>
               <path d="M2243.28 3833.65l0 43.51c0,2.42 1.94,4.59 4.59,4.59 2.42,0 4.59,-1.93 4.59,-4.59l0 -43.51 -9.18 0z"/>
               <path d="M2251.58 3841.95l-43.51 0c-2.41,0 -4.59,-1.93 -4.59,-4.59 0,-2.42 1.93,-4.59 4.59,-4.59l43.51 0 0 9.18z"/>
               <path d="M2243.28 3841.07l0 -43.51c0,-2.42 1.94,-4.59 4.59,-4.59 2.42,0 4.59,1.93 4.59,4.59l0 43.51 -9.18 0z"/>
            </g>
         </g>
      </g>
   </symbol>

   <symbol id="icon-tv-plus" viewBox="0 0 4500 4500">
      <g id="Слой_x0020_1">
         <metadata id="CorelCorpID_0Corel-Layer"/>
         <g id="_2660516785920">
            <g>
               <path d="M4426.68 582.89l-4357.62 0c-37.47,0 -71.19,29.98 -71.19,71.19l0 2885.1c0,37.47 29.98,71.19 71.19,71.19l1094.09 0 0 168.61 -310.99 0c-37.47,0 -71.19,29.97 -71.19,71.19 0,37.47 29.97,71.19 71.19,71.19l2813.9 0c37.47,0 71.19,-29.97 71.19,-71.19 0,-37.47 -29.97,-71.19 -71.19,-71.19l-329.72 0 0 -168.61 1090.34 0c37.47,0 71.19,-29.98 71.19,-71.19l0 -2885.1c-3.75,-41.21 -33.72,-71.19 -71.19,-71.19zm-1232.73 3196.09l-1892.17 0 0 -168.61 1892.17 0 0 168.61zm1161.54 -307.25l-4218.99 0 0 -2750.2 4218.99 0 0 2750.2z"/>
            </g>
            <g>
               <path d="M2190.32 2165.96l675.01 0c37.47,0 71.19,-29.97 71.19,-71.19 0,-37.47 -29.98,-71.19 -71.19,-71.19l-675.01 0 0 142.38z"/>
               <path d="M2176.68 2037.22l0 675.01c0,37.47 29.97,71.19 71.19,71.19 37.47,0 71.19,-29.97 71.19,-71.19l0 -675.01 -142.38 0z"/>
               <path d="M2305.41 2165.96l-675 0c-37.47,0 -71.19,-29.97 -71.19,-71.19 0,-37.47 29.97,-71.19 71.19,-71.19l675 0 0 142.38z"/>
               <path d="M2176.68 2152.32l0 -675.01c0,-37.47 29.97,-71.19 71.19,-71.19 37.47,0 71.19,29.97 71.19,71.19l0 675.01 -142.38 0z"/>
            </g>
         </g>
         <rect y="2.12"/>
      </g>
   </symbol>

   <symbol id="icon-router" viewBox="0 0 128 128">
      <g>
         <path d="M107.1,82.3h-60l-3.4-26.1c2.1-1.2,3.5-3.5,3.5-6c0-3.9-3.1-7-7-7s-7,3.1-7,7c0,2.6,1.4,4.8,3.6,6.1l-3.4,26.1
		H20.6c-3.7,0-6.7,3-6.7,6.7v15.7c0,3.7,3,6.7,6.7,6.7h86.5c3.7,0,6.7-3,6.7-6.7V89.1C113.8,85.3,110.8,82.3,107.1,82.3z M40.3,47.1
		c1.7,0,3,1.3,3,3c0,1.4-1,2.6-2.3,2.9c-0.5,0.1-1,0.1-1.4,0c-1.3-0.3-2.3-1.5-2.3-2.9C37.3,48.5,38.6,47.1,40.3,47.1z M40.3,60.7
		l2.8,21.7h-5.6L40.3,60.7z M109.8,104.7c0,1.5-1.2,2.7-2.7,2.7H20.6c-1.5,0-2.7-1.2-2.7-2.7V89.1c0-1.5,1.2-2.7,2.7-2.7h14.6h10.2
		h61.7c1.5,0,2.7,1.2,2.7,2.7V104.7z"/>
         <path d="M29.2,90.9c-3.3,0-6,2.7-6,6s2.7,6,6,6s6-2.7,6-6S32.5,90.9,29.2,90.9z M29.2,98.9c-1.1,0-2-0.9-2-2s0.9-2,2-2
		s2,0.9,2,2S30.3,98.9,29.2,98.9z"/>
         <path d="M47,90.9c-3.3,0-6,2.7-6,6s2.7,6,6,6s6-2.7,6-6S50.3,90.9,47,90.9z M47,98.9c-1.1,0-2-0.9-2-2s0.9-2,2-2
		s2,0.9,2,2S48.1,98.9,47,98.9z"/>
         <path d="M64.8,90.9c-3.3,0-6,2.7-6,6s2.7,6,6,6s6-2.7,6-6S68.1,90.9,64.8,90.9z M64.8,98.9c-1.1,0-2-0.9-2-2s0.9-2,2-2
		s2,0.9,2,2S65.9,98.9,64.8,98.9z"/>
         <path d="M21.2,31.1c10.5-10.5,27.7-10.5,38.2,0c0.4,0.4,0.9,0.6,1.4,0.6s1-0.2,1.4-0.6c0.8-0.8,0.8-2,0-2.8
		c-12.1-12.1-31.8-12.1-43.8,0c-0.8,0.8-0.8,2,0,2.8S20.4,31.8,21.2,31.1z"/>
         <path d="M55.1,37.3c0.5,0,1-0.2,1.4-0.6c0.8-0.8,0.8-2,0-2.8c-9-9-23.6-9-32.5,0c-0.8,0.8-0.8,2,0,2.8s2,0.8,2.8,0
		c7.4-7.4,19.5-7.4,26.9,0C54.1,37.1,54.6,37.3,55.1,37.3z"/>
         <path d="M29.7,39.5c-0.8,0.8-0.8,2,0,2.8s2,0.8,2.8,0c4.3-4.3,11.3-4.3,15.6,0c0.4,0.4,0.9,0.6,1.4,0.6s1-0.2,1.4-0.6
		c0.8-0.8,0.8-2,0-2.8C45,33.7,35.5,33.7,29.7,39.5z"/>
      </g>
   </symbol>
   <symbol id="icon-speed" viewBox="0 0 128 128">
      <g>
         <path d="M63.8,24.6c-29.2,0-52.9,23.7-52.9,52.9c0,9,2.3,17.7,6.5,25.5l5.8-3.2c-2.8-5.1-4.6-10.9-5.5-16.8h5.5v-6.6
		h-5.8c0.3-10.6,4.1-20.2,10.3-28l5,5l4.6-4.6l-5.1-5.1c7.5-6.8,17.2-11.3,27.9-12.1v6h6.6v-6c10.8,0.8,20.6,5.1,28,12.1l-5.1,5.1
		l4.6,4.6l5-5c6.3,7.6,10.1,17.4,10.3,27.9h-6V83h5.6c-0.7,6-2.5,11.6-5.5,16.8l5.8,3.2c4.3-7.8,6.5-16.6,6.5-25.5
		C116.7,48.3,93,24.6,63.8,24.6z"/>
         <path d="M87.8,90.1L70.4,79.4c0-0.5,0-0.8-0.1-1.3c-0.8-3.4-4.2-5.5-7.6-4.7c-3.4,0.8-5.5,4.2-4.7,7.6
		c0.8,3.4,4.2,5.5,7.6,4.7c0.5-0.1,0.9-0.4,1.4-0.5l17.4,10.7c1.6,1,3.5,0.5,4.5-1.1C89.9,93.2,89.4,91.1,87.8,90.1z"/>
      </g>
   </symbol>
   <symbol id="icon-tv-console" viewBox="0 0 128 128">
      <g>
         <path d="M63.8,103.9h0.2c1,0,1.8-0.8,1.8-1.8c0-1-0.8-1.8-1.8-1.8h-0.2c-1,0-1.8,0.8-1.8,1.8
		C62,103.1,62.8,103.9,63.8,103.9z"/>
         <path d="M51.9,73.4L51.9,73.4L51.9,73.4c0.5,0,0.9-0.2,1.3-0.5L77.1,49c0.5-0.6,0.5-1.5,0-2.2
		c-0.3-0.5-0.9-0.7-1.4-0.7c-0.4,0-0.8,0.1-1.1,0.4L50.6,70.4c-0.3,0.3-0.5,0.8-0.5,1.2c0,0.5,0.2,0.9,0.5,1.3
		C51,73.2,51.4,73.4,51.9,73.4z"/>
         <path d="M75.9,57.9c-0.5,0-0.9,0.2-1.3,0.5l-12,12c-0.3,0.3-0.5,0.8-0.5,1.3c0,1,0.8,1.7,1.7,1.8l0.2,0v0
		c0.4,0,0.9-0.2,1.2-0.5l12-12c0.3-0.3,0.5-0.8,0.5-1.3s-0.2-0.9-0.5-1.3S76.4,57.9,75.9,57.9z"/>
         <path d="M63.8,103.9h0.2c1,0,1.8-0.8,1.8-1.8c0-1-0.8-1.8-1.8-1.8h-0.2c-1,0-1.8,0.8-1.8,1.8
		C62,103.1,62.8,103.9,63.8,103.9z"/>
         <path d="M51.9,73.4L51.9,73.4L51.9,73.4c0.5,0,0.9-0.2,1.3-0.5L77.1,49c0.5-0.6,0.5-1.5,0-2.2
		c-0.3-0.5-0.9-0.7-1.4-0.7c-0.4,0-0.8,0.1-1.1,0.4L50.6,70.4c-0.3,0.3-0.5,0.8-0.5,1.2c0,0.5,0.2,0.9,0.5,1.3
		C51,73.2,51.4,73.4,51.9,73.4z"/>
         <path d="M75.9,57.9c-0.5,0-0.9,0.2-1.3,0.5l-12,12c-0.3,0.3-0.5,0.8-0.5,1.3c0,1,0.8,1.7,1.7,1.8l0.2,0v0
		c0.4,0,0.9-0.2,1.2-0.5l12-12c0.3-0.3,0.5-0.8,0.5-1.3s-0.2-0.9-0.5-1.3S76.4,57.9,75.9,57.9z"/>
         <g>
            <path d="M27.7,71.2h-3.4c-1,0-1.8,0.8-1.8,1.8c0,1,0.8,1.8,1.8,1.8h3.4c1,0,1.8-0.8,1.8-1.8
			C29.5,72,28.7,71.2,27.7,71.2z"/>
            <path d="M40.1,73c0-1-0.8-1.8-1.8-1.8h-2.9c-1,0-1.8,0.8-1.8,1.8c0,1,0.8,1.8,1.8,1.8h2.9C39.3,74.8,40.1,74,40.1,73z
			"/>
            <path d="M31.3,70.9c1,0,1.8-0.8,1.8-1.8v-2.9c0-1-0.8-1.8-1.8-1.8c-1,0-1.8,0.8-1.8,1.8v2.9
			C29.5,70.1,30.3,70.9,31.3,70.9z"/>
            <path d="M31.3,82c1,0,1.8-0.8,1.8-1.8v-3.1c0-1-0.8-1.8-1.8-1.8c-1,0-1.8,0.8-1.8,1.8v3.1C29.5,81.2,30.3,82,31.3,82z
			"/>
            <path d="M38.5,60.3h-0.2c-1,0-1.8,0.8-1.8,1.8s0.8,1.8,1.8,1.8h0.2c1,0,1.8-0.8,1.8-1.8S39.5,60.3,38.5,60.3z"/>
            <path d="M24.3,84.2h-0.2c-1,0-1.8,0.8-1.8,1.8s0.8,1.8,1.8,1.8h0.2c1,0,1.8-0.8,1.8-1.8S25.3,84.2,24.3,84.2z"/>
            <path d="M31.6,84.2h-0.2c-1,0-1.8,0.8-1.8,1.8s0.8,1.8,1.8,1.8h0.2c1,0,1.8-0.8,1.8-1.8S32.5,84.2,31.6,84.2z"/>
            <path d="M38.5,84.2h-0.2c-1,0-1.8,0.8-1.8,1.8s0.8,1.8,1.8,1.8h0.2c1,0,1.8-0.8,1.8-1.8S39.5,84.2,38.5,84.2z"/>
            <path d="M24.3,96.5h-0.2c-1,0-1.8,0.8-1.8,1.8s0.8,1.8,1.8,1.8h0.2c1,0,1.8-0.8,1.8-1.8S25.3,96.5,24.3,96.5z"/>
            <path d="M31.6,96.5h-0.2c-1,0-1.8,0.8-1.8,1.8s0.8,1.8,1.8,1.8h0.2c1,0,1.8-0.8,1.8-1.8S32.5,96.5,31.6,96.5z"/>
            <path d="M38.5,96.5h-0.2c-1,0-1.8,0.8-1.8,1.8s0.8,1.8,1.8,1.8h0.2c1,0,1.8-0.8,1.8-1.8S39.5,96.5,38.5,96.5z"/>
            <path d="M24.3,90.3h-0.2c-1,0-1.8,0.8-1.8,1.8c0,1,0.8,1.8,1.8,1.8h0.2c1,0,1.8-0.8,1.8-1.8
			C26.1,91.1,25.3,90.3,24.3,90.3z"/>
            <path d="M31.6,90.3h-0.2c-1,0-1.8,0.8-1.8,1.8c0,1,0.8,1.8,1.8,1.8h0.2c1,0,1.8-0.8,1.8-1.8
			C33.4,91.1,32.5,90.3,31.6,90.3z"/>
            <path d="M38.5,90.3h-0.2c-1,0-1.8,0.8-1.8,1.8c0,1,0.8,1.8,1.8,1.8h0.2c1,0,1.8-0.8,1.8-1.8
			C40.3,91.1,39.5,90.3,38.5,90.3z"/>
            <path d="M24.1,63.9h0.2c1,0,1.8-0.8,1.8-1.8s-0.8-1.8-1.8-1.8h-0.2c-1,0-1.8,0.8-1.8,1.8S23.1,63.9,24.1,63.9z"/>
            <path d="M46.8,91.3V58.6c-0.1-2.7-2.3-4.8-4.9-4.8H21.2c-2.7,0-5,2.2-5,5v6.4v3.6v34.3c0,2.7,2.2,5,5,5h20.7
			c2.7,0,5-2.2,5-5L46.8,91.3L46.8,91.3z M43.2,103.1c0,0.7-0.6,1.3-1.3,1.3H21.2c-0.7,0-1.3-0.6-1.3-1.3V58.8
			c0-0.7,0.6-1.3,1.3-1.3h20.7c0.7,0,1.3,0.6,1.3,1.3V103.1z"/>
         </g>
         <path d="M23.8,102.3"/>
         <path d="M121.6,19.6H6c-1,0-1.8,0.8-1.8,1.8V98c0,1,0.8,1.8,1.8,1.8h11.8v-3.6h-10v-73h112v73h-29h-45v3.6H89v4.6H41.8
		v3.6h49h10.6c1,0,1.8-0.8,1.8-1.8c0-1-0.8-1.8-1.8-1.8h-8.8v-4.6h29c1,0,1.8-0.8,1.8-1.8V21.4C123.5,20.4,122.6,19.6,121.6,19.6z" />
      </g>
   </symbol>
   <symbol id="icon-wifi" viewBox="0 0 128 128">
      <g>
         <path d="M117.8,45.1c-13.6-15.7-33.2-24.7-54-24.9c-20.7,0.2-40.4,9.2-54,24.9c-1.5,1.6-1.3,4.1,0.3,5.6
		c1.6,1.5,4.1,1.3,5.6-0.3c12.1-14,29.6-22.1,48.1-22.3c18.5,0.2,36.1,8.3,48.2,22.3c1.5,1.6,3.9,1.7,5.6,0.3
		C119.1,49.2,119.3,46.7,117.8,45.1L117.8,45.1L117.8,45.1z"/>
         <path d="M63.8,43.8c-14.6,0-28.4,6.2-38.2,17c-1.5,1.6-1.4,4.1,0.2,5.6c1.6,1.5,4.1,1.4,5.6-0.2l0,0
		c16.1-17.9,43.8-19.4,61.7-3.2c1.1,1,2.2,2.1,3.2,3.2c1.5,1.6,4,1.7,5.6,0.2c1.6-1.5,1.7-4,0.2-5.6l0,0
		C92.3,50,78.4,43.8,63.8,43.8z"/>
         <path d="M63.8,67.4c-8.3,0-16.3,3.2-22.4,9c-1.7,1.4-1.9,3.9-0.5,5.5c1.4,1.7,3.9,1.9,5.5,0.5c0.1-0.1,0.3-0.3,0.4-0.4
		c9.5-9,24.4-9,33.9,0c1.7,1.4,4.1,1.1,5.5-0.5c1.2-1.5,1.2-3.7-0.1-5.1C80.2,70.5,72.1,67.3,63.8,67.4z"/>
         <path d="M58.2,93.3c-3,3.1-2.9,8.1,0.2,11.1c3.1,3,8.1,2.9,11.1-0.2c1.4-1.5,2.2-3.4,2.2-5.4c0-2.1-0.8-4.2-2.4-5.7
		C66.2,90.1,61.2,90.1,58.2,93.3C58.2,93.2,58.2,93.3,58.2,93.3z"/>
      </g>
   </symbol>
   <symbol id="icon-check" viewBox="0 0 128 128">
      <path d="M43.6,106.2c-1.1,0-2.1-0.4-2.9-1L8,77.4c-0.9-0.8-1.5-1.9-1.6-3.1c-0.1-1.2,0.3-2.4,1-3.3
	c0.9-1,2.1-1.6,3.4-1.6c1.1,0,2.1,0.4,2.9,1.1l29.6,25l2-2c11.2-11.3,21.3-22,31.2-32.3c11.5-12.1,23.5-24.6,37.1-38.3
	c0.7-0.8,1.7-1.3,2.7-1.4c0.2,0,0.4,0,0.6,0c1.2,0,2.4,0.5,3.2,1.4c0.8,0.9,1.3,2,1.3,3.2c0,1.2-0.5,2.3-1.4,3.1
	c-13.4,13.4-25.1,25.8-36.4,37.7c-11.4,12-23.2,24.4-36.7,38C46,105.7,44.8,106.2,43.6,106.2z"/>
   </symbol>

   <symbol id="icon-console" viewBox="0 0 128 128">
      <g>
         <g>
            <path d="M79.1,46.5h-3.4c-1,0-1.8,0.8-1.8,1.8c0,1,0.8,1.8,1.8,1.8h3.4c1,0,1.8-0.8,1.8-1.8
			C80.9,47.3,80.1,46.5,79.1,46.5z"/>
            <path d="M91.5,48.3c0-1-0.8-1.8-1.8-1.8h-2.9c-1,0-1.8,0.8-1.8,1.8c0,1,0.8,1.8,1.8,1.8h2.9
			C90.7,50.1,91.5,49.3,91.5,48.3z"/>
            <path d="M82.7,46.2c1,0,1.8-0.8,1.8-1.8v-2.9c0-1-0.8-1.8-1.8-1.8s-1.8,0.8-1.8,1.8v2.9
			C80.9,45.4,81.7,46.2,82.7,46.2z"/>
            <path d="M82.7,57.3c1,0,1.8-0.8,1.8-1.8v-3.1c0-1-0.8-1.8-1.8-1.8s-1.8,0.8-1.8,1.8v3.1
			C80.9,56.5,81.7,57.3,82.7,57.3z"/>
            <path d="M89.9,35.6h-0.2c-1,0-1.8,0.8-1.8,1.8s0.8,1.8,1.8,1.8h0.2c1,0,1.8-0.8,1.8-1.8S90.9,35.6,89.9,35.6z"/>
            <path d="M75.7,59.5h-0.2c-1,0-1.8,0.8-1.8,1.8s0.8,1.8,1.8,1.8h0.2c1,0,1.8-0.8,1.8-1.8S76.7,59.5,75.7,59.5z"/>
            <path d="M82.9,59.5h-0.2c-1,0-1.8,0.8-1.8,1.8s0.8,1.8,1.8,1.8h0.2c1,0,1.8-0.8,1.8-1.8S83.9,59.5,82.9,59.5z"/>
            <path d="M89.9,59.5h-0.2c-1,0-1.8,0.8-1.8,1.8s0.8,1.8,1.8,1.8h0.2c1,0,1.8-0.8,1.8-1.8S90.9,59.5,89.9,59.5z"/>
            <path d="M75.7,71.8h-0.2c-1,0-1.8,0.8-1.8,1.8s0.8,1.8,1.8,1.8h0.2c1,0,1.8-0.8,1.8-1.8S76.7,71.8,75.7,71.8z"/>
            <path d="M82.9,71.8h-0.2c-1,0-1.8,0.8-1.8,1.8s0.8,1.8,1.8,1.8h0.2c1,0,1.8-0.8,1.8-1.8S83.9,71.8,82.9,71.8z"/>
            <path d="M89.9,71.8h-0.2c-1,0-1.8,0.8-1.8,1.8s0.8,1.8,1.8,1.8h0.2c1,0,1.8-0.8,1.8-1.8S90.9,71.8,89.9,71.8z"/>
            <path d="M75.7,65.6h-0.2c-1,0-1.8,0.8-1.8,1.8c0,1,0.8,1.8,1.8,1.8h0.2c1,0,1.8-0.8,1.8-1.8
			C77.5,66.4,76.7,65.6,75.7,65.6z"/>
            <path d="M82.9,65.6h-0.2c-1,0-1.8,0.8-1.8,1.8c0,1,0.8,1.8,1.8,1.8h0.2c1,0,1.8-0.8,1.8-1.8
			C84.7,66.4,83.9,65.6,82.9,65.6z"/>
            <path d="M89.9,65.6h-0.2c-1,0-1.8,0.8-1.8,1.8c0,1,0.8,1.8,1.8,1.8h0.2c1,0,1.8-0.8,1.8-1.8
			C91.7,66.4,90.9,65.6,89.9,65.6z"/>
            <path d="M75.5,39.3h0.2c1,0,1.8-0.8,1.8-1.8s-0.8-1.8-1.8-1.8h-0.2c-1,0-1.8,0.8-1.8,1.8S74.5,39.3,75.5,39.3z"/>
            <path d="M98.2,66.6V34c-0.1-2.7-2.3-4.8-4.9-4.8H72.6c-2.7,0-5,2.2-5,5v6.4v3.6v34.3c0,2.7,2.2,5,5,5h20.7
			c2.7,0,5-2.2,5-5L98.2,66.6L98.2,66.6z M94.6,78.4c0,0.7-0.6,1.3-1.3,1.3H72.6c-0.7,0-1.3-0.6-1.3-1.3V34.1c0-0.7,0.6-1.3,1.3-1.3
			h20.7c0.7,0,1.3,0.6,1.3,1.3V78.4z"/>
         </g>
         <path d="M75.2,77.7"/>
      </g>
      <path d="M32.2,78.3c-3.3,0-6,2.7-6,6s2.7,6,6,6s6-2.7,6-6S35.5,78.3,32.2,78.3z M32.2,86.3c-1.1,0-2-0.9-2-2s0.9-2,2-2
	c1.1,0,2,0.9,2,2S33.3,86.3,32.2,86.3z"/>
      <path d="M107.1,69.3h-9.3v4h9.3c1.5,0,2.7,1.2,2.7,2.7v15.7c0,1.5-1.2,2.7-2.7,2.7H20.6c-1.5,0-2.7-1.2-2.7-2.7V76.1
	c0-1.5,1.2-2.7,2.7-2.7h14.6h10.2h24.5v-4H20.6c-3.7,0-6.7,3-6.7,6.7v15.7c0,3.7,3,6.7,6.7,6.7h86.5c3.7,0,6.7-3,6.7-6.7V76.1
	C113.8,72.3,110.8,69.3,107.1,69.3z"/>
   </symbol>

   <symbol id="icon-gear" viewBox="0 0 128 128">
      <g>
         <path d="M111.7,55.3h-8.3l-0.2-0.8c-1-4.2-2.6-8.2-4.9-11.9l-0.4-0.7l5.9-5.9c0.4-0.4,0.6-1,0.6-1.5
		c0-0.6-0.2-1.1-0.6-1.5l-9-9c-0.4-0.4-1-0.6-1.5-0.6s-1.1,0.2-1.5,0.6l-5.9,5.9L85,29.4c-3.7-2.3-7.7-3.9-11.9-4.9l-0.8-0.2V16
		c0-1.2-1-2.2-2.2-2.2H57.5c-1.2,0-2.2,1-2.2,2.2v8.3l-0.8,0.2c-4.2,1-8.2,2.6-11.9,4.9l-0.7,0.4l-5.9-5.9c-0.4-0.4-1-0.6-1.5-0.6
		c-0.6,0-1.1,0.2-1.5,0.6l-9,9c-0.8,0.8-0.8,2.2,0,3.1l5.9,5.9l-0.4,0.7c-2.3,3.7-3.9,7.7-4.9,11.9l-0.2,0.8H16
		c-1.2,0-2.2,1-2.2,2.2v12.8c0,1.2,1,2.2,2.2,2.2h8.3l0.2,0.8c1,4.2,2.6,8.2,4.9,11.9l0.4,0.7L24,91.6c-0.4,0.4-0.6,1-0.6,1.5
		s0.2,1.1,0.6,1.5l9,9c0.4,0.4,0.9,0.6,1.5,0.6c0.6,0,1.2-0.2,1.5-0.6l5.9-5.9l0.7,0.4c3.7,2.3,7.7,3.9,11.9,4.9l0.8,0.2v8.3
		c0,1.2,1,2.2,2.2,2.2h12.8c1.2,0,2.2-1,2.2-2.2v-8.3l0.8-0.2c4.2-1,8.2-2.6,11.9-4.9l0.7-0.4l5.9,5.9c0.4,0.4,0.9,0.6,1.5,0.6
		c0.6,0,1.2-0.2,1.5-0.6l9-9c0.8-0.8,0.8-2.2,0-3.1l-5.9-5.9l0.4-0.7c2.3-3.7,3.9-7.7,4.9-11.9l0.2-0.8h8.3c1.2,0,2.2-1,2.2-2.2
		V57.4C113.8,56.2,112.9,55.3,111.7,55.3z M109.5,68h-8c-1.1,0-2,0.8-2.1,1.8c-0.9,5.4-3,10.4-6.2,14.9c-0.6,0.9-0.5,2,0.2,2.8
		l5.6,5.6l-6,6l-5.6-5.6c-0.4-0.4-1-0.6-1.5-0.6c-0.5,0-0.9,0.1-1.3,0.4c-4.5,3.2-9.5,5.2-14.9,6.2c-1,0.2-1.8,1.1-1.8,2.1v8h-8.4
		v-8c0-1.1-0.8-2-1.8-2.1c-5.4-0.9-10.4-3-14.9-6.2c-0.4-0.3-0.8-0.4-1.3-0.4c-0.6,0-1.1,0.2-1.5,0.6l-5.6,5.6l-6-6l5.6-5.6
		c0.8-0.8,0.9-1.9,0.2-2.8c-3.2-4.5-5.2-9.5-6.2-14.9c-0.2-1-1.1-1.8-2.1-1.8h-8v-8.4h8c1.1,0,2-0.8,2.1-1.8
		c0.9-5.4,3-10.4,6.2-14.9c0.6-0.9,0.5-2-0.2-2.8l-5.6-5.6l6-6l5.6,5.6c0.4,0.4,1,0.6,1.5,0.6c0.5,0,0.9-0.1,1.3-0.4
		c4.5-3.2,9.5-5.2,14.9-6.1c1.1-0.2,1.8-1.1,1.8-2.1v-8H68v8c0,1.1,0.8,2,1.8,2.1c5.4,0.9,10.4,3,14.9,6.2c0.4,0.3,0.8,0.4,1.3,0.4
		c0.6,0,1.1-0.2,1.5-0.6l5.6-5.6l6,6l-5.6,5.6c-0.8,0.8-0.9,1.9-0.2,2.8c3.2,4.5,5.2,9.5,6.2,14.9c0.2,1,1.1,1.8,2.1,1.8h8L109.5,68
		z"/>
         <path d="M63.8,42.5c-11.7,0-21.3,9.6-21.3,21.3c0,11.7,9.6,21.3,21.3,21.3c11.7,0,21.3-9.6,21.3-21.3
		C85.1,52.1,75.6,42.5,63.8,42.5z M63.8,80.8c-9.4,0-17-7.6-17-17c0-9.4,7.6-17,17-17s17,7.6,17,17C80.8,73.2,73.2,80.8,63.8,80.8z" />
      </g>
   </symbol>
   <symbol id="icon-connect" viewBox="0 0 294.843 294.843">
      <g>
         <path d="M199.922,210.005c-23.39,0-42.418,19.029-42.418,42.418s19.028,42.419,42.418,42.419s42.419-19.029,42.419-42.419
		S223.312,210.005,199.922,210.005z M199.922,282.843c-16.772,0-30.418-13.646-30.418-30.419s13.646-30.418,30.418-30.418
		c16.773,0,30.419,13.646,30.419,30.418S216.696,282.843,199.922,282.843z"/>
         <path d="M129.567,109.567c1.535,0,3.071-0.586,4.242-1.757l35.781-35.78c7.708,7.894,18.454,12.808,30.333,12.808
		c23.39,0,42.419-19.029,42.419-42.418S223.312,0,199.922,0s-42.418,19.029-42.418,42.419c0,7.15,1.785,13.888,4.923,19.804
		l-37.102,37.101c-2.344,2.343-2.344,6.142-0.001,8.485C126.496,108.981,128.031,109.567,129.567,109.567z M199.922,12
		c16.773,0,30.419,13.646,30.419,30.419s-13.646,30.418-30.419,30.418c-16.772,0-30.418-13.646-30.418-30.418S183.15,12,199.922,12z
		"/>
         <path d="M157.908,214.935l-35.364-35.363c9.048-7.785,14.794-19.306,14.794-32.151c0-23.39-19.028-42.419-42.418-42.419
		s-42.419,19.029-42.419,42.419S71.531,189.84,94.92,189.84c6.139,0,11.972-1.321,17.244-3.678l37.259,37.258
		c1.171,1.171,2.707,1.757,4.242,1.757s3.071-0.586,4.242-1.757C160.251,221.077,160.251,217.278,157.908,214.935z M64.501,147.421
		c0-16.773,13.646-30.419,30.419-30.419c16.772,0,30.418,13.646,30.418,30.419S111.693,177.84,94.92,177.84
		C78.147,177.84,64.501,164.194,64.501,147.421z"/>
      </g>
   </symbol>
   <symbol id="icon-archive" viewBox="0 0 128 128">
      <g>
         <path d="M112.5,57.2l-11.8-17.6v-1.8c0-3.3-2.1-6.3-5.2-7.4V22c0-4.3-3.5-7.9-7.9-7.9H40.4c-4.3,0-7.9,3.5-7.9,7.9v8.4
		c-3.1,1.1-5.2,4.1-5.2,7.4v1.8L15.5,57.3c-2.6,3.9-4,8.4-4,13.1v33c0,5.8,4.7,10.5,10.5,10.5H106c5.8,0,10.5-4.7,10.5-10.5v-33
		C116.4,65.7,115.1,61.1,112.5,57.2z M100.7,49.1l7.4,11.1c0.3,0.4,0.5,0.8,0.7,1.2h-8.1V49.1z M37.8,22c0-1.4,1.2-2.6,2.6-2.6h47.2
		c1.4,0,2.6,1.2,2.6,2.6v7.9H37.8V22z M32.5,37.8c0-1.4,1.2-2.6,2.6-2.6h57.7c1.4,0,2.6,1.2,2.6,2.6v23.6h-8.3
		c-2.1,0-4.1,0.8-5.6,2.3l-4.8,4.8c-0.5,0.5-1.2,0.8-1.9,0.8H53.1c-0.7,0-1.4-0.3-1.9-0.8l-4.8-4.8c-1.5-1.5-3.5-2.3-5.6-2.3h-8.3
		V37.8z M19.9,60.2l7.4-11.1v12.3h-8.1C19.4,61,19.6,60.6,19.9,60.2z M111.2,103.3c0,2.9-2.3,5.2-5.2,5.2H22c-2.9,0-5.2-2.3-5.2-5.2
		v-33c0-1.3,0.2-2.5,0.4-3.7h23.6c0.7,0,1.4,0.3,1.9,0.8l4.8,4.8c1.5,1.5,3.5,2.3,5.6,2.3h21.9c2.1,0,4.1-0.8,5.6-2.3l4.8-4.8
		c0.5-0.5,1.2-0.8,1.9-0.8h23.6c0.3,1.2,0.4,2.5,0.5,3.7V103.3z"/>
         <path d="M77.1,82.4H50.9c-4.3,0-7.9,3.5-7.9,7.9v2.6c0,4.3,3.5,7.9,7.9,7.9h26.2c4.3,0,7.9-3.5,7.9-7.9v-2.6
		C85,85.9,81.5,82.4,77.1,82.4z M79.7,92.8c0,1.4-1.2,2.6-2.6,2.6H50.9c-1.4,0-2.6-1.2-2.6-2.6v-2.6c0-1.4,1.2-2.6,2.6-2.6h26.2
		c1.4,0,2.6,1.2,2.6,2.6V92.8z"/>
      </g>
   </symbol>

   <symbol id="icon-email" viewBox="0 0 50 50">
      <g>
         <path d="M 14 4 C 8.4886661 4 4 8.4886661 4 14 L 4 36 C 4 41.511334 8.4886661 46 14 46 L 36 46 C 41.511334 46 46 41.511334 46 36 L 46 14 C 46 8.4886661 41.511334 4 36 4 L 14 4 z M 14 6 L 36 6 C 40.430666 6 44 9.5693339 44 14 L 44 36 C 44 40.430666 40.430666 44 36 44 L 14 44 C 9.5693339 44 6 40.430666 6 36 L 6 14 C 6 9.5693339 9.5693339 6 14 6 z M 13 15 C 11.35503 15 10 16.35503 10 18 L 10 32 C 10 33.64497 11.35503 35 13 35 L 37 35 C 38.64497 35 40 33.64497 40 32 L 40 18 C 40 16.35503 38.64497 15 37 15 L 13 15 z M 13.414062 17 L 36.583984 17 L 27.677734 25.892578 C 26.18494 27.382984 23.796834 27.382819 22.304688 25.890625 L 13.414062 17 z M 38 18.412109 L 38 31.587891 L 31.402344 25 L 38 18.412109 z M 12 18.414062 L 18.585938 25 L 12 31.585938 L 12 18.414062 z M 29.988281 26.412109 L 36.585938 33 L 13.414062 33 L 20 26.414062 L 20.890625 27.304688 C 23.146478 29.56054 26.832638 29.562194 29.089844 27.308594 L 29.988281 26.412109 z"></path>
      </g>
   </symbol>
   <symbol id="icon-phone" viewBox="0 0 473.806 473.806">
      <g>
         <g>
            <path d="M374.456,293.506c-9.7-10.1-21.4-15.5-33.8-15.5c-12.3,0-24.1,5.3-34.2,15.4l-31.6,31.5c-2.6-1.4-5.2-2.7-7.7-4
			c-3.6-1.8-7-3.5-9.9-5.3c-29.6-18.8-56.5-43.3-82.3-75c-12.5-15.8-20.9-29.1-27-42.6c8.2-7.5,15.8-15.3,23.2-22.8
			c2.8-2.8,5.6-5.7,8.4-8.5c21-21,21-48.2,0-69.2l-27.3-27.3c-3.1-3.1-6.3-6.3-9.3-9.5c-6-6.2-12.3-12.6-18.8-18.6
			c-9.7-9.6-21.3-14.7-33.5-14.7s-24,5.1-34,14.7c-0.1,0.1-0.1,0.1-0.2,0.2l-34,34.3c-12.8,12.8-20.1,28.4-21.7,46.5
			c-2.4,29.2,6.2,56.4,12.8,74.2c16.2,43.7,40.4,84.2,76.5,127.6c43.8,52.3,96.5,93.6,156.7,122.7c23,10.9,53.7,23.8,88,26
			c2.1,0.1,4.3,0.2,6.3,0.2c23.1,0,42.5-8.3,57.7-24.8c0.1-0.2,0.3-0.3,0.4-0.5c5.2-6.3,11.2-12,17.5-18.1c4.3-4.1,8.7-8.4,13-12.9
			c9.9-10.3,15.1-22.3,15.1-34.6c0-12.4-5.3-24.3-15.4-34.3L374.456,293.506z M410.256,398.806
			C410.156,398.806,410.156,398.906,410.256,398.806c-3.9,4.2-7.9,8-12.2,12.2c-6.5,6.2-13.1,12.7-19.3,20
			c-10.1,10.8-22,15.9-37.6,15.9c-1.5,0-3.1,0-4.6-0.1c-29.7-1.9-57.3-13.5-78-23.4c-56.6-27.4-106.3-66.3-147.6-115.6
			c-34.1-41.1-56.9-79.1-72-119.9c-9.3-24.9-12.7-44.3-11.2-62.6c1-11.7,5.5-21.4,13.8-29.7l34.1-34.1c4.9-4.6,10.1-7.1,15.2-7.1
			c6.3,0,11.4,3.8,14.6,7c0.1,0.1,0.2,0.2,0.3,0.3c6.1,5.7,11.9,11.6,18,17.9c3.1,3.2,6.3,6.4,9.5,9.7l27.3,27.3
			c10.6,10.6,10.6,20.4,0,31c-2.9,2.9-5.7,5.8-8.6,8.6c-8.4,8.6-16.4,16.6-25.1,24.4c-0.2,0.2-0.4,0.3-0.5,0.5
			c-8.6,8.6-7,17-5.2,22.7c0.1,0.3,0.2,0.6,0.3,0.9c7.1,17.2,17.1,33.4,32.3,52.7l0.1,0.1c27.6,34,56.7,60.5,88.8,80.8
			c4.1,2.6,8.3,4.7,12.3,6.7c3.6,1.8,7,3.5,9.9,5.3c0.4,0.2,0.8,0.5,1.2,0.7c3.4,1.7,6.6,2.5,9.9,2.5c8.3,0,13.5-5.2,15.2-6.9
			l34.2-34.2c3.4-3.4,8.8-7.5,15.1-7.5c6.2,0,11.3,3.9,14.4,7.3c0.1,0.1,0.1,0.1,0.2,0.2l55.1,55.1
			C420.456,377.706,420.456,388.206,410.256,398.806z"/>
            <path d="M256.056,112.706c26.2,4.4,50,16.8,69,35.8s31.3,42.8,35.8,69c1.1,6.6,6.8,11.2,13.3,11.2c0.8,0,1.5-0.1,2.3-0.2
			c7.4-1.2,12.3-8.2,11.1-15.6c-5.4-31.7-20.4-60.6-43.3-83.5s-51.8-37.9-83.5-43.3c-7.4-1.2-14.3,3.7-15.6,11
			S248.656,111.506,256.056,112.706z"/>
            <path d="M473.256,209.006c-8.9-52.2-33.5-99.7-71.3-137.5s-85.3-62.4-137.5-71.3c-7.3-1.3-14.2,3.7-15.5,11
			c-1.2,7.4,3.7,14.3,11.1,15.6c46.6,7.9,89.1,30,122.9,63.7c33.8,33.8,55.8,76.3,63.7,122.9c1.1,6.6,6.8,11.2,13.3,11.2
			c0.8,0,1.5-0.1,2.3-0.2C469.556,223.306,474.556,216.306,473.256,209.006z"/>
         </g>
      </g>
   </symbol>

   <symbol id="icon-single-bed" viewBox="0 0 512 457.03">
      <g>
         <path fill-rule="nonzero" d="M69.24 0h373.51c11.67 0 22.29 4.78 29.96 12.45 7.68 7.68 12.46 18.31 12.46 29.97v194.86c3.52 2.4 6.78 5.07 9.73 8.01l.66.73c10.16 10.47 16.44 24.05 16.44 40.25v159.51c0 6.21-5.04 11.25-11.25 11.25h-19.74c-5.29 0-9.73-3.66-10.93-8.59-7.11-20.29-14.12-31.98-23.44-38.19-9.51-6.32-22.84-7.9-42.23-7.88l-313.54.46c-13.73-.31-22.56 3.56-28.85 10.57-7.19 8.01-12.17 20.58-17.26 35.9-1.54 4.7-5.93 7.68-10.62 7.68l-22.89.05C5.04 457.03 0 451.99 0 445.78V280.95c0-15.17 5.99-27.77 15.6-37.39l.74-.67c3.16-3.06 6.7-5.79 10.53-8.18L26.82 42c0-11.65 4.79-22.15 12.49-29.75A42.525 42.525 0 0 1 69.24 0zm-46.1 328.3-.65-.02v106.26h3.66c5.16-14.51 10.82-26.75 19.17-36.07 10.7-11.93 24.85-18.5 45.98-18.03l313.11-.47c23.76-.02 40.67 2.3 54.61 11.58 12.54 8.35 21.61 21.62 29.81 42.99h.68V328.28l-.66.02H23.14zm-.65-22.47.65-.02h465.71l.66.02v-19.56c0-9.86-3.81-18.14-9.96-24.55l-.56-.52c-4.92-4.92-11.22-8.79-18.31-11.49-12.78-2.73-25.26-5.22-37.48-7.48-13.79-2.15-27.16-4.07-40.18-5.76a11.163 11.163 0 0 1-4.83-.21l-5.04-1.04c-43.12-5.28-82.66-7.96-121.81-7.99-24.01-.02-47.96.96-72.6 2.94-43.39 4.33-88.49 12.09-138.25 23.13-.47.1-.95.18-1.41.22-2.58 1.59-4.96 3.39-7.05 5.39l-.52.56c-5.56 5.55-9.02 12.8-9.02 21.48v24.88zm32.6-81.73c22.5-4.01 43.9-7.38 64.59-10.14l-.03-45.02c0-15.1 6.18-28.85 16.12-38.78l.74-.67c9.89-9.55 23.31-15.44 38.04-15.44h162.9c15.11 0 28.84 6.18 38.77 16.12 9.94 9.94 16.13 23.68 16.13 38.77v45.36c10.97 1.68 22.12 3.55 33.48 5.63 8.4 1.31 16.94 2.7 25.66 4.17 3.81.65 7.55 1.52 11.19 2.61V42.42c0-5.45-2.26-10.44-5.87-14.06-3.61-3.61-8.6-5.87-14.06-5.87H69.24c-5.57 0-10.61 2.19-14.21 5.75-3.53 3.48-5.71 8.34-5.71 13.76v183.34c1.9-.47 3.83-.89 5.77-1.24zm206.77-20.65c29.94.14 59.19 1.78 85.13 4.96 7.55.79 15.18 1.7 22.86 2.7v-42.17c0-8.88-3.66-16.99-9.54-22.87-5.87-5.87-13.97-9.53-22.86-9.53h-162.9c-8.65 0-16.54 3.43-22.37 8.98l-.51.55c-5.87 5.87-9.52 13.98-9.52 22.87v42.15c36.75-5.25 78.88-7.84 119.71-7.64z"/>
      </g>
   </symbol>
   <symbol id="icon-bed" viewBox="0 0 122.88 99.94">
      <g>
         <path d="M4.22,67.36h114.31v-4.67c0-1.13-0.22-2.18-0.61-3.12c-0.42-1-1.04-1.89-1.81-2.66c-0.47-0.47-1-0.9-1.57-1.28 c-0.58-0.39-1.2-0.73-1.85-1.02c-1.75-0.38-3.49-0.74-5.22-1.08c-1.74-0.34-3.49-0.66-5.25-0.96c-0.08-0.01-0.14-0.02-0.22-0.04 c-0.89-0.15-1.74-0.29-2.55-0.42c-0.81-0.13-1.67-0.26-2.57-0.4l-0.02,0c-6.12-0.78-12.22-1.38-18.31-1.78 c-6.1-0.4-12.17-0.6-18.2-0.61c-3.58,0-7.15,0.06-10.72,0.2c-3.55,0.14-7.12,0.34-10.69,0.62l-0.02,0 c-3.34,0.31-6.67,0.7-10.01,1.15c-3.33,0.45-6.67,0.98-10.03,1.57l-0.37,0.09c-0.07,0.02-0.14,0.03-0.2,0.03 c-0.06,0.01-0.12,0.01-0.18,0.01c-1.57,0.28-3.18,0.59-4.84,0.92c-1.61,0.32-3.22,0.66-4.82,1.01c-0.4,0.22-0.78,0.47-1.14,0.73 c-0.36,0.27-0.71,0.56-1.02,0.87v0c-0.67,0.67-1.2,1.44-1.56,2.3c-0.34,0.81-0.53,1.71-0.53,2.69V67.36L4.22,67.36z M14.2,0h92.99 c1.21,0,2.37,0.24,3.43,0.68c1.1,0.46,2.09,1.13,2.92,1.95c0.83,0.83,1.5,1.82,1.95,2.92c0.44,1.06,0.68,2.22,0.68,3.43v42.69 c0.51,0.3,1.01,0.63,1.47,0.99c0.52,0.4,1.01,0.82,1.46,1.27c1.16,1.16,2.1,2.51,2.73,4.03c0.6,1.43,0.93,3.02,0.93,4.74v6.09 c0.03,0.1,0.06,0.2,0.08,0.3l0,0.02c0.02,0.13,0.03,0.25,0.03,0.37c0,0.13-0.01,0.26-0.04,0.39l0,0c-0.02,0.1-0.05,0.2-0.08,0.3 v27.66c0,0.58-0.24,1.11-0.62,1.49c-0.38,0.38-0.91,0.62-1.49,0.62h-4.35c-0.49,0-0.94-0.17-1.3-0.45 c-0.36-0.28-0.63-0.68-0.74-1.14c-0.8-2.3-1.61-4.12-2.48-5.54c-0.86-1.4-1.78-2.4-2.84-3.11c-1.07-0.71-2.35-1.16-3.9-1.43 c-1.58-0.28-3.42-0.37-5.61-0.36l-79.76,0.1l-0.04,0c-1.57-0.03-2.86,0.17-3.94,0.59c-1.07,0.42-1.94,1.05-2.66,1.86 c-0.81,0.9-1.49,2.05-2.11,3.39c-0.63,1.37-1.2,2.93-1.77,4.64l0,0c-0.14,0.44-0.42,0.79-0.77,1.04c-0.33,0.24-0.73,0.38-1.14,0.4 c-0.03,0.01-0.06,0.01-0.09,0.01H2.11c-0.58,0-1.11-0.24-1.49-0.62C0.24,98.94,0,98.41,0,97.83V61.52c0-1.57,0.3-3.01,0.84-4.31 c0.58-1.38,1.43-2.61,2.49-3.67c0.3-0.3,0.63-0.6,0.98-0.88c0.3-0.24,0.6-0.47,0.92-0.68V8.89c0-1.21,0.24-2.36,0.68-3.4 c0.46-1.09,1.13-2.07,1.96-2.89c0.83-0.82,1.82-1.47,2.91-1.92C11.84,0.24,12.99,0,14.2,0L14.2,0z M107.19,4.22H14.2 c-0.65,0-1.27,0.13-1.84,0.36c-0.59,0.24-1.11,0.59-1.55,1.02c-0.43,0.42-0.78,0.94-1.02,1.5C9.57,7.65,9.45,8.25,9.45,8.89v41.06 c0.3-0.1,0.6-0.18,0.91-0.26c0.49-0.13,0.98-0.24,1.47-0.32c0.68-0.12,1.42-0.25,2.22-0.39c0.6-0.1,1.24-0.21,1.9-0.31V38.19 c0-1.58,0.32-3.09,0.89-4.47c0.6-1.44,1.47-2.73,2.55-3.81c1.08-1.08,2.37-1.95,3.81-2.55c1.38-0.57,2.89-0.89,4.47-0.89h19.82 c1.58,0,3.09,0.32,4.47,0.89c1.44,0.6,2.73,1.47,3.81,2.55c1.08,1.08,1.95,2.37,2.55,3.81c0.57,1.38,0.89,2.89,0.89,4.47v6.69 c0.7-0.01,1.4-0.01,2.11-0.01v-6.68c0-1.58,0.32-3.09,0.89-4.47c0.6-1.44,1.47-2.73,2.55-3.81c1.08-1.08,2.37-1.95,3.81-2.55 c1.38-0.57,2.89-0.89,4.47-0.89h19.82c1.58,0,3.09,0.32,4.47,0.89c1.44,0.6,2.73,1.47,3.81,2.55c1.08,1.08,1.95,2.37,2.55,3.81 c0.57,1.38,0.89,2.89,0.89,4.47v10.34c0.75,0.11,1.55,0.24,2.41,0.38c0.95,0.15,1.86,0.3,2.74,0.45c0.45,0.08,0.91,0.17,1.37,0.28 c0.29,0.07,0.57,0.14,0.84,0.22V8.98c0-0.64-0.13-1.25-0.36-1.81c-0.24-0.58-0.6-1.1-1.04-1.55c-0.44-0.44-0.97-0.8-1.54-1.04 C108.44,4.35,107.83,4.22,107.19,4.22L107.19,4.22z M43.21,45.56c2.01-0.15,4.03-0.28,6.08-0.38c1.89-0.1,3.8-0.17,5.71-0.22v-6.77 c0-1.01-0.2-1.98-0.57-2.86c-0.38-0.92-0.94-1.74-1.64-2.44c-0.69-0.69-1.52-1.25-2.44-1.64c-0.88-0.37-1.85-0.57-2.86-0.57H27.67 c-1.01,0-1.98,0.2-2.86,0.57c-0.92,0.38-1.74,0.94-2.44,1.64c-0.69,0.69-1.25,1.52-1.64,2.44c-0.37,0.88-0.57,1.85-0.57,2.86V48 c1.62-0.24,3.26-0.46,4.94-0.68c1.81-0.23,3.61-0.44,5.39-0.64c0.69-0.08,1.43-0.17,2.2-0.25c0.72-0.08,1.47-0.15,2.27-0.23 c1.36-0.13,2.71-0.25,4.04-0.36C40.37,45.75,41.77,45.65,43.21,45.56L43.21,45.56z M65.54,44.9c1.21,0.02,2.42,0.05,3.63,0.09 c1.34,0.04,2.68,0.1,4.01,0.16l0.01,0c2.19,0.08,4.33,0.18,6.41,0.3c2.08,0.12,4.11,0.27,6.05,0.44c2.82,0.25,5.55,0.55,8.14,0.9 c2.32,0.32,4.52,0.68,6.58,1.08v-9.68c0-1.01-0.2-1.98-0.57-2.86c-0.38-0.92-0.94-1.74-1.64-2.44c-0.69-0.69-1.52-1.25-2.44-1.64 c-0.88-0.37-1.85-0.57-2.86-0.57H73.05c-1.01,0-1.98,0.2-2.86,0.57c-0.92,0.38-1.74,0.94-2.44,1.64c-0.69,0.69-1.25,1.52-1.64,2.44 c-0.37,0.88-0.57,1.85-0.57,2.86V44.9L65.54,44.9z M118.54,71.59H4.22v24.13h1.43c0.56-1.58,1.14-3.05,1.79-4.36 c0.7-1.4,1.49-2.64,2.45-3.71c1.14-1.28,2.48-2.27,4.09-2.93c1.61-0.65,3.49-0.98,5.75-0.93l79.69-0.1c2.57,0,4.77,0.12,6.69,0.49 c1.95,0.37,3.63,1,5.14,2c1.4,0.93,2.6,2.16,3.68,3.77c1.03,1.54,1.95,3.43,2.83,5.76h0.76V71.59L118.54,71.59z"/>
      </g>
   </symbol>
   <symbol id="icon-tea" viewBox="0 0 122.88 102.56">
      <g>
         <path d="M102.27,58.85c0.23-0.79,1.06-1.24,1.85-1.01c0.79,0.23,1.24,1.06,1.01,1.85c-0.61,2.09-1.36,4.18-2.22,6.23 c-0.86,2.02-1.82,3.99-2.89,5.87c-0.41,0.71-1.31,0.96-2.03,0.56c-0.71-0.41-0.96-1.31-0.56-2.03c1.02-1.79,1.94-3.65,2.74-5.55 C100.97,62.84,101.68,60.86,102.27,58.85L102.27,58.85z M61.02,6.31c0.83-0.83,2.18-0.83,3.02,0c0.83,0.83,0.83,2.18,0,3.02 c-3.19,3.2-1.8,5.81-0.18,8.84c2.4,4.47,5.14,9.6,0.51,17.62c-0.59,1.02-1.89,1.36-2.91,0.78c-1.02-0.59-1.36-1.89-0.78-2.91 c3.45-5.97,1.3-9.98-0.58-13.48C57.69,15.64,55.6,11.74,61.02,6.31L61.02,6.31z M80.48,0.62c0.83-0.83,2.18-0.83,3.02,0 c0.83,0.83,0.83,2.18,0,3.02c-3.19,3.19-1.8,5.81-0.18,8.84c2.4,4.47,5.14,9.6,0.51,17.62c-0.59,1.02-1.89,1.36-2.91,0.78 c-1.02-0.59-1.36-1.89-0.78-2.91c3.45-5.97,1.3-9.98-0.58-13.48C77.14,9.95,75.05,6.05,80.48,0.62L80.48,0.62z M99.94,6.31 c0.83-0.83,2.18-0.83,3.02,0c0.83,0.83,0.83,2.18,0,3.02c-3.2,3.2-1.8,5.81-0.18,8.84c2.4,4.47,5.14,9.6,0.51,17.62 c-0.59,1.02-1.89,1.36-2.91,0.78c-1.02-0.59-1.36-1.89-0.78-2.91c3.45-5.97,1.3-9.98-0.58-13.48C96.6,15.64,94.51,11.74,99.94,6.31 L99.94,6.31z M2.21,22.54c-2.34-2.93-2.66-6.07-1.72-8.73c0.47-1.34,1.27-2.54,2.3-3.52C3.8,9.32,5.04,8.57,6.4,8.13 c2.85-0.92,6.22-0.52,9.19,2.01l0.05,0.04l38.1,32.61h67.14c1.1,0,1.99,0.89,1.99,1.99c0,0.08-0.01,0.16-0.01,0.24 c-0.51,12.13-3.33,22.71-9.13,31.31c-5.86,8.68-14.72,15.28-27.24,19.34c-0.03,0.01-0.07,0.02-0.1,0.03v6.01 c0,0.46-0.38,0.84-0.84,0.84H48.33c-0.6,0-1.09-0.49-1.09-1.09v-5.82c-0.12-0.04-0.23-0.1-0.34-0.16 c-11.49-5.43-19.59-12.58-24.96-21.13c-5.39-8.58-8-18.53-8.47-29.5c-0.05-1.09,0.8-2.02,1.9-2.07c0.03,0,0.06,0,0.09,0v-0.01 h10.41L2.5,22.84C2.39,22.75,2.3,22.65,2.21,22.54L2.21,22.54z M4.23,15.13c-0.5,1.42-0.3,3.14,0.99,4.82l26.44,22.57h15.67 L13.07,13.2l-0.04-0.03c-1.8-1.53-3.78-1.79-5.42-1.26c-0.79,0.25-1.5,0.69-2.09,1.25C4.95,13.71,4.5,14.38,4.23,15.13L4.23,15.13z M25.3,72.25c4.94,7.86,12.42,14.47,23.04,19.54h37.25c11.45-3.77,19.53-9.8,24.85-17.68c5.07-7.51,7.69-16.51,8.36-27.11H17.55 C18.22,56.48,20.64,64.83,25.3,72.25L25.3,72.25z M94.68,74.57c0.48-0.67,1.41-0.81,2.08-0.33c0.67,0.48,0.81,1.41,0.33,2.08 c-0.62,0.86-1.27,1.69-1.94,2.49c-0.65,0.78-1.34,1.54-2.06,2.27c-0.58,0.59-1.52,0.59-2.1,0.02c-0.59-0.58-0.59-1.52-0.02-2.1 c0.64-0.65,1.27-1.35,1.9-2.09C93.49,76.16,94.1,75.38,94.68,74.57L94.68,74.57z"/>
      </g>
   </symbol>
   <symbol id="icon-person" viewBox="0 0 93.52 122.88">
      <g>
         <path class="st0" d="M0.46,0h13.33c0.25,0,0.46,0.21,0.46,0.46v44.21l0.29-0.3l0.08-0.08c3.18-3.48,5.78-6.26,9.1-8.14 c3.36-1.9,7.4-2.84,13.42-2.58l0.01,0c2.15,0.03,4.69,0.26,6.78,0.46c0.97,0.09,1.84,0.17,2.59,0.22 c10.16,0.67,14.92,6.01,18.62,10.17c1.63,1.84,3.05,3.42,4.57,4.15c0.72,0.34,1.85-0.14,3.14-0.68c0.78-0.33,1.6-0.68,2.47-0.91 c0.56-0.21,0.87-0.33,1.11-0.42c0.31-0.12,0.52-0.2,0.64-0.24l9.24-3.66l0.04-0.01c1.24-0.42,2.68-0.16,3.95,0.59 c0.89,0.53,1.71,1.31,2.3,2.26c0.59,0.96,0.95,2.1,0.94,3.36c-0.01,1.81-0.81,3.83-2.82,5.83c-0.09,0.09-0.19,0.15-0.3,0.18 l-9.26,3.67l0,0l-0.86,0.3c-4.96,1.76-8.55,3.03-14.84,1.48c-0.05-0.01-0.09-0.03-0.13-0.05c-4.4-1.71-6.68-4.08-8.9-6.4 l-0.33-0.34l-2.81,17.91c2.51,1.58,5.02,2.75,7.39,3.86c7.2,3.36,13.12,6.12,14.39,17.43c0.23,2.03,0.12,3.94,0.01,6.02l0,0.03 c-0.02,0.3-0.03,0.63-0.07,1.4l-0.88,21.91c-0.02,0.43-0.38,0.76-0.8,0.75l-11.13,0.03c-0.43,0-0.78-0.35-0.78-0.78 c0.12-7.55,0.34-15.46,0.73-23l0.06-1.02c0.06-1.18,0.12-2.27,0.06-3.29c-0.06-0.97-0.24-1.88-0.64-2.75l-0.11-0.23 c-0.45-0.98-0.86-1.88-1.48-2.17c-1.23-0.57-3.18-1.28-5.4-2.01c-2.54-0.84-5.38-1.68-7.88-2.39c-1.84,6.08-4.33,13.44-7,20.43 c-2.39,6.24-4.92,12.21-7.27,16.74c-0.14,0.28-0.44,0.44-0.73,0.42l-11.69,0.06c-0.43,0-0.78-0.34-0.78-0.77 c0-0.1,0.02-0.2,0.06-0.29l0,0c2.34-5.75,5.1-13.22,7.75-20.81c2.71-7.77,5.31-15.69,7.23-22.05c-1.14-1.4-2.23-2.96-2.97-4.68 c-0.82-1.9-1.22-3.96-0.81-6.17l4.01-21.66l-0.23-0.01c-1.39-0.06-2.55-0.11-3.88,0.47c-1.82,0.8-3.26,2.42-4.86,4.22 c-0.65,0.73-1.32,1.49-2.09,2.27l-0.05,0.05c-0.57,0.59-1.17,1.2-1.73,1.77l-7.08,7.15c-0.11,0.11-0.24,0.18-0.38,0.21v59.84 c0,0.25-0.21,0.46-0.46,0.46H0.46c-0.25,0-0.46-0.21-0.46-0.46V0.46C0,0.21,0.21,0,0.46,0L0.46,0z M47.34,6.41 c3.18-1.09,6.51-0.78,9.31,0.59c2.8,1.37,5.08,3.82,6.17,7c1.09,3.18,0.78,6.51-0.59,9.31c-1.37,2.8-3.82,5.08-7,6.17 c-3.18,1.09-6.51,0.78-9.31-0.59c-2.8-1.37-5.08-3.82-6.17-7c-1.09-3.18-0.78-6.51,0.59-9.31C41.71,9.78,44.15,7.5,47.34,6.41 L47.34,6.41z M3.07,39.71h3.08v14.75H3.07V39.71L3.07,39.71z"/>
      </g>
   </symbol>
</svg>